HIERARCHY
ROOT Hips
{
     OFFSET 13.64490 95.39250 24.42190
     CHANNELS 6 Xposition Yposition Zposition Zrotation Xrotation Yrotation
     JOINT Spine
     {
          OFFSET 0.00000 11.89050 -0.00000
          CHANNELS 3 Zrotation Xrotation Yrotation
          JOINT Spine1
          {
               OFFSET -0.00000 25.65740 0.12766
               CHANNELS 3 Zrotation Xrotation Yrotation
               JOINT HEad
               {
                    OFFSET 0.00000 8.73416 0.01134
                    CHANNELS 3 Zrotation Xrotation Yrotation
                    End Site
                    {
                         OFFSET -0.29000 12.77420 2.51395
                    }
               }
               JOINT LeftShoulder1
               {
                    OFFSET 8.99000 -0.36225 -0.22000
                    CHANNELS 3 Zrotation Xrotation Yrotation
                    JOINT LeftArm
                    {
                         OFFSET 10.28270 -0.00338 0.32212
                         CHANNELS 3 Zrotation Xrotation Yrotation
                         JOINT LeftForeArm
                         {
                              OFFSET 32.76690 0.09914 -1.42434
                              CHANNELS 3 Zrotation Xrotation Yrotation
                              JOINT LeftHand
                              {
                                   OFFSET 27.56430 0.08536 1.02216
                                   CHANNELS 3 Zrotation Xrotation Yrotation
                                   End Site
                                   {
                                        OFFSET 16.74430 -0.60000 1.50291
                                   }
                              }
                         }
                    }
               }
               JOINT RightShoulder
               {
                    OFFSET -8.99000 -0.36225 -0.22000
                    CHANNELS 3 Zrotation Xrotation Yrotation
                    JOINT RightArm
                    {
                         OFFSET -10.28270 -0.00338 0.32212
                         CHANNELS 3 Zrotation Xrotation Yrotation
                         JOINT RightForeArm
                         {
                              OFFSET -32.89710 0.09914 -1.42434
                              CHANNELS 3 Zrotation Xrotation Yrotation
                              JOINT RightHand
                              {
                                   OFFSET -27.49210 0.08536 1.02216
                                   CHANNELS 3 Zrotation Xrotation Yrotation
                                   End Site
                                   {
                                        OFFSET -16.63120 -0.60000 1.50291
                                   }
                              }
                         }
                    }
               }
          }
     }
     JOINT LeftUpLeg
     {
          OFFSET 8.94580 -8.66707 0.10165
          CHANNELS 3 Zrotation Xrotation Yrotation
          JOINT LeftLeg
          {
               OFFSET 0.00000 -44.42270 1.37270
               CHANNELS 3 Zrotation Xrotation Yrotation
               JOINT LeftFoot
               {
                    OFFSET -0.25355 -42.09240 -1.46059
                    CHANNELS 3 Zrotation Xrotation Yrotation
                    JOINT LeftToes
                    {
                         OFFSET -0.04000 -4.41509 8.49910
                         CHANNELS 3 Zrotation Xrotation Yrotation
                         End Site
                         {
                              OFFSET 0.08000 -0.04745 9.77979
                         }
                    }
               }
          }
     }
     JOINT RightUpLeg
     {
          OFFSET -8.94580 -8.66707 0.10165
          CHANNELS 3 Zrotation Xrotation Yrotation
          JOINT RightLeg
          {
               OFFSET 0.00000 -44.42270 1.37270
               CHANNELS 3 Zrotation Xrotation Yrotation
               JOINT RightFoot
               {
                    OFFSET 0.25355 -42.09240 -1.46059
                    CHANNELS 3 Zrotation Xrotation Yrotation
                    JOINT RightToes
                    {
                         OFFSET 0.04000 -4.41509 8.49910
                         CHANNELS 3 Zrotation Xrotation Yrotation
                         End Site
                         {
                              OFFSET -0.08000 -0.13745 9.77979
                         }
                    }
               }
          }
     }
}
MOTION
Frames: 19
Frame Time: 0.01667
13.64490 95.39250 24.42190 -3.32766 -7.11231 -24.63060 -5.75323 9.33708 -0.30520 -3.16816 18.12380 -1.07946 7.71953 -21.28200 7.76409 -0.00000 -0.00000 0.00000 -82.32820 -43.56180 -81.69510 -16.01860 24.28060 -79.47000 16.96130 7.52066 -12.41560 18.25160 1.27848 3.74358 82.30850 -13.99510 75.42440 19.69340 33.37530 93.80580 15.07280 11.80520 9.58293 15.27550 -11.42790 -7.93986 -20.09120 12.47190 57.45900 -0.69872 13.57340 0.03183 1.65591 -29.72770 -67.56120 -26.57530 8.15074 7.02930 42.97250 0.87450 -56.55460 -38.03700 -3.42575 1.32528 5.67030 -40.77070 8.88610 
13.55110 95.15980 24.25270 -3.04778 -7.30302 -25.21410 -5.95814 9.42471 -0.26321 -3.36893 18.29120 -0.98477 7.33801 -21.43590 7.42348 -0.00000 -0.00000 0.00000 -80.45850 -42.87150 -80.67090 -15.58740 21.88710 -78.91390 16.56900 7.57691 -12.43040 18.06660 1.28408 3.81660 82.54800 -13.88540 75.47850 19.68370 33.35460 93.67400 15.20050 11.81160 9.51734 15.39810 -11.43740 -7.17823 -20.62210 12.76490 57.80190 -0.29651 13.42010 -0.04183 1.40165 -30.22370 -67.92150 -26.99060 7.76603 6.78793 43.46470 1.18224 -58.26530 -38.50210 -4.34943 1.01496 5.73802 -40.79330 9.14222 
13.44720 94.98570 24.10630 -2.82327 -7.41844 -25.82740 -6.02990 9.47995 -0.25013 -3.52247 18.40130 -0.91990 6.98889 -21.40330 6.81162 -0.00000 -0.00000 0.00000 -79.05180 -42.37510 -79.74990 -15.23920 20.12620 -78.47570 16.35720 7.60114 -12.48250 18.07540 1.27167 3.75371 82.69860 -13.77210 75.46740 19.60070 33.47240 93.86920 15.32840 11.81020 9.39689 15.60100 -11.37470 -6.56135 -21.14170 12.87150 58.07440 -0.05919 13.18290 -0.08399 1.33865 -30.34760 -67.99720 -27.37040 7.32766 6.54148 43.97370 1.55247 -59.39560 -38.81360 -5.07623 0.76307 5.78417 -40.57850 9.50109 
13.32580 94.86760 23.98230 -2.64440 -7.47875 -26.48040 -5.99434 9.50863 -0.26495 -3.61707 18.46520 -0.89638 6.65994 -21.24480 5.87433 -0.00000 -0.00000 0.00000 -78.10030 -42.05600 -78.93890 -15.00120 19.02480 -78.17650 16.36410 7.58545 -12.58800 18.20150 1.23409 3.53990 82.81920 -13.67550 75.43620 19.42890 33.72610 94.34070 15.45310 11.80330 9.24145 15.85880 -11.24910 -6.10295 -21.62260 12.84490 58.36440 -0.10606 12.96070 -0.07437 1.42556 -30.16740 -67.93810 -27.72910 6.87953 6.24530 44.51370 1.92645 -60.01440 -38.95030 -5.55792 0.59200 5.79501 -40.23520 9.82763 
13.17580 94.78870 23.87920 -2.49893 -7.51664 -27.22730 -5.90442 9.52105 -0.29891 -3.66725 18.50350 -0.91311 6.40502 -21.04880 4.62632 -0.00000 -0.00000 0.00000 -77.49050 -41.86520 -78.19780 -14.89310 18.43020 -78.01560 16.53470 7.53963 -12.73160 18.38890 1.17977 3.23385 82.93230 -13.62790 75.42560 19.24720 34.06930 94.94430 15.59850 11.79790 9.08270 16.16170 -11.04870 -5.76073 -22.07570 12.74780 58.72360 -0.44844 12.77220 -0.01263 1.60961 -29.78970 -67.77840 -28.08020 6.45857 5.88724 45.07810 2.24548 -60.30260 -38.97450 -5.80801 0.50175 5.79105 -39.95050 10.05110 
12.98770 94.72860 23.79810 -2.37678 -7.57505 -28.13540 -5.81530 9.52934 -0.34323 -3.70636 18.54280 -0.96778 6.30874 -20.89590 3.14355 -0.00000 -0.00000 0.00000 -77.10580 -41.77060 -77.49800 -14.89050 18.14640 -77.96790 16.75200 7.48377 -12.89220 18.58290 1.12724 2.93993 83.05850 -13.66090 75.45320 19.14920 34.43790 95.53200 15.78050 11.80000 8.94856 16.49930 -10.73370 -5.50282 -22.53840 12.61660 59.14940 -1.02746 12.53570 0.08946 1.87782 -29.25340 -67.42330 -28.43400 6.09515 5.49311 45.65550 2.46213 -60.48810 -38.91950 -5.94155 0.45232 5.77111 -39.74580 10.14280 
12.75750 94.67490 23.74150 -2.27264 -7.67845 -29.24590 -5.74913 9.53422 -0.39957 -3.76036 18.58780 -1.06808 6.39258 -20.80930 1.48125 -0.00000 -0.00000 0.00000 -76.84460 -41.75960 -76.82200 -14.90830 18.02660 -78.00530 16.92180 7.43676 -13.03780 18.73140 1.09130 2.73849 83.20470 -13.79150 75.50500 19.16450 34.77990 96.02500 15.97160 11.80670 8.84210 16.85870 -10.26770 -5.33027 -23.04230 12.44520 59.60160 -1.76823 12.12260 0.21559 2.25880 -28.49570 -66.76160 -28.77640 5.81038 5.06421 46.22100 2.54879 -60.72670 -38.79980 -6.08890 0.39702 5.67701 -39.47160 9.97915 
12.48630 94.62560 23.71400 -2.19413 -7.82120 -30.58270 -5.68241 9.52309 -0.47358 -3.83741 18.61470 -1.21519 6.61471 -20.75650 -0.36243 -0.00000 -0.00000 0.00000 -76.64520 -41.83040 -76.16870 -14.84500 18.04190 -78.11710 17.05240 7.40561 -13.11320 18.84870 1.07302 2.62906 83.29520 -13.99420 75.54550 19.26810 35.05790 96.42030 16.10890 11.80820 8.74457 17.24490 -9.62574 -5.25943 -23.60860 12.18650 60.07900 -2.57503 11.43350 0.34305 2.76731 -27.44780 -65.78050 -29.06470 5.61173 4.55232 46.73390 2.51237 -61.04660 -38.64330 -6.30001 0.31858 5.45546 -38.98840 9.43426 
12.17700 94.58290 23.72200 -2.17116 -7.98035 -32.18470 -5.56601 9.48438 -0.56337 -3.93550 18.59880 -1.38836 6.94853 -20.70640 -2.36567 -0.00000 -0.00000 0.00000 -76.52010 -42.00150 -75.56600 -14.64350 18.27630 -78.30910 17.23520 7.38407 -13.06680 19.02460 1.06269 2.54721 83.19310 -14.19470 75.53220 19.40290 35.25190 96.77090 16.11690 11.79390 8.64080 17.69230 -8.79218 -5.33037 -24.26110 11.78970 60.70080 -3.32872 10.44230 0.44553 3.36384 -26.14090 -64.55680 -29.24650 5.48334 3.90818 47.15900 2.40934 -61.40610 -38.46760 -6.56546 0.22105 5.14278 -38.27760 8.64055 
11.83210 94.54990 23.77140 -2.24658 -8.11757 -34.10940 -5.36075 9.41439 -0.65840 -4.04051 18.52660 -1.55447 7.38717 -20.64680 -4.43046 -0.00000 -0.00000 0.00000 -76.50750 -42.29610 -75.03920 -14.34310 18.79730 -78.57890 17.53950 7.36166 -12.90210 19.32310 1.04678 2.41855 82.81850 -14.30110 75.42160 19.48720 35.35990 97.16370 15.95880 11.75830 8.51941 18.23390 -7.78214 -5.56960 -24.98460 11.26520 61.64220 -3.93104 9.21867 0.50606 3.96209 -24.73690 -63.14360 -29.27200 5.36709 3.14807 47.47660 2.32908 -61.77270 -38.27750 -6.88056 0.10656 4.84410 -37.39880 7.99027 
11.45360 94.53570 23.86240 -2.45351 -8.18401 -36.40470 -5.05098 9.31533 -0.74939 -4.10995 18.39330 -1.69563 7.86661 -20.54560 -6.45012 -0.00000 -0.00000 0.00000 -76.60130 -42.70080 -74.56830 -14.08880 19.52530 -78.89660 17.95040 7.33273 -12.67980 19.66380 1.01041 2.19225 82.17050 -14.20550 75.15580 19.42910 35.31650 97.69390 15.68920 11.70650 8.36961 18.86630 -6.64158 -5.93274 -25.68910 10.69180 63.00430 -4.32918 7.93420 0.52413 4.45638 -23.49540 -61.50130 -29.09390 5.17384 2.37573 47.66060 2.35151 -62.10640 -38.08940 -7.23697 -0.02150 4.63612 -36.39130 7.83621 
11.04330 94.55690 23.98370 -2.81053 -8.14509 -39.08370 -4.63234 9.19789 -0.84225 -4.08909 18.21110 -1.83213 8.27011 -20.34550 -8.36646 -0.00000 -0.00000 0.00000 -76.75330 -43.18120 -74.09570 -14.05410 20.28050 -79.22220 18.39900 7.29795 -12.46870 19.88410 0.95093 1.88633 81.41720 -13.92290 74.74230 19.26970 35.19090 98.31240 15.37050 11.64870 8.21016 19.56680 -5.41135 -6.36375 -26.27840 10.15160 64.81100 -4.51410 6.79953 0.51172 4.77615 -22.63340 -59.56010 -28.66400 4.84030 1.73280 47.65010 2.52625 -62.28180 -37.94960 -7.53829 -0.12879 4.53672 -35.34140 8.27260 
10.59890 94.62450 24.10960 -3.32297 -8.00179 -42.12450 -4.13999 9.07978 -0.95482 -3.95318 18.01060 -2.01152 8.53816 -19.97980 -10.15260 -0.00000 -0.00000 0.00000 -76.94160 -43.75720 -73.58500 -14.34320 20.97590 -79.53850 18.82560 7.26052 -12.30420 19.95520 0.89392 1.61789 80.67890 -13.57760 74.21950 19.11490 35.10110 98.91320 15.04780 11.59280 8.06114 20.32390 -4.12655 -6.87251 -26.73780 9.72497 67.05460 -4.52712 5.95566 0.48536 4.93998 -22.15020 -57.32370 -27.94840 4.37137 1.34205 47.35080 2.86475 -62.12570 -37.99970 -7.54135 -0.12981 4.59392 -34.66290 9.24783 
10.09810 94.69510 24.19380 -3.91375 -7.84706 -45.48170 -3.85360 8.96451 -1.07894 -3.77790 17.81540 -2.27963 8.71632 -19.39180 -11.80430 -0.00000 -0.00000 0.00000 -77.22390 -44.51820 -73.06900 -14.97370 21.72290 -79.84420 19.21680 7.22015 -12.19630 20.02260 0.87200 1.50960 79.90070 -13.27080 73.60030 19.03680 35.06800 99.43970 14.77270 11.54580 7.93344 21.04930 -2.92794 -7.49642 -27.15600 9.69795 69.70480 -4.50640 5.40700 0.46480 5.04095 -21.80400 -54.86060 -27.04590 3.57008 1.18802 46.71430 3.85988 -61.67880 -38.26920 -7.09263 0.03079 4.95238 -35.10800 10.72530 
9.53606 94.80960 24.20120 -4.62216 -7.65834 -49.09540 -3.75012 8.85857 -1.23326 -3.60270 17.64130 -2.66285 8.91099 -18.59160 -13.34500 -0.00000 -0.00000 0.00000 -77.70420 -45.53900 -72.64000 -15.91280 22.72080 -80.11390 19.58670 7.17158 -12.15990 20.24450 0.88907 1.55587 79.01750 -12.99700 72.88620 19.05650 35.06520 99.87730 14.58260 11.51360 7.84467 21.84760 -1.82492 -8.37161 -27.64330 10.01390 72.71690 -4.37306 5.20917 0.44331 5.18029 -21.23980 -52.24320 -25.89800 2.55722 1.34436 45.71340 5.37587 -60.85690 -38.98270 -6.01976 0.42499 5.77197 -37.23400 12.56100 
8.90189 94.98600 24.09980 -5.43363 -7.42797 -52.89260 -3.86672 8.76382 -1.41610 -3.46069 17.50190 -3.16630 9.23690 -17.68590 -14.81120 -0.00000 -0.00000 0.00000 -78.46250 -46.80260 -72.42810 -17.08320 24.10920 -80.29320 19.94730 7.11173 -12.19820 20.67000 0.91961 1.63250 78.06750 -12.65960 72.07600 19.10400 35.05000 100.28900 14.49860 11.49730 7.78905 22.77330 -0.91309 -9.62900 -28.32570 10.71570 76.09660 -4.01916 5.43173 0.41002 5.42392 -20.09470 -49.55890 -24.49390 1.69308 1.94710 44.31850 6.77041 -59.45260 -40.31020 -4.23863 1.11605 7.08757 -40.89430 14.45120 
8.19644 95.22850 23.86940 -6.29277 -7.17982 -56.78030 -4.26651 8.68386 -1.61348 -3.39295 17.41730 -3.78086 9.76474 -16.82340 -16.25230 -0.00000 -0.00000 0.00000 -79.55100 -48.20830 -72.59200 -18.34580 25.94730 -80.32900 20.30040 7.04564 -12.27680 21.23310 0.92941 1.59845 77.18410 -12.16800 71.17180 19.07100 34.98500 100.78200 14.54740 11.49470 7.73057 23.78160 -0.30747 -11.29530 -29.27000 11.85820 79.81460 -3.29467 6.17984 0.34422 5.80393 -18.00090 -46.99520 -22.91850 1.09899 2.96620 42.60270 7.85966 -57.51260 -42.01380 -2.00058 2.05068 8.77886 -45.33840 16.21280 
7.44899 95.52570 23.51060 -7.13963 -6.96522 -60.63490 -5.00236 8.62521 -1.80881 -3.42318 17.41110 -4.49356 10.48830 -16.12040 -17.74550 -0.00000 -0.00000 0.00000 -80.95080 -49.55770 -73.23280 -19.50920 28.15080 -80.21180 20.60240 6.98883 -12.34290 21.82850 0.88616 1.33905 76.47480 -11.48530 70.18010 18.91560 34.84590 101.42000 14.74760 11.50580 7.65610 24.73350 -0.08841 -13.23240 -30.43670 13.45660 83.71780 -2.04061 7.56762 0.20929 6.32010 -14.74070 -44.96180 -21.33840 0.86039 4.26732 40.72740 8.49795 -55.25480 -43.86790 0.35164 3.11853 10.68860 -49.74000 17.93940 
6.74942 95.74060 23.12070 -7.98195 -6.76740 -64.34690 -6.07147 8.59031 -1.97474 -3.55786 17.50110 -5.28677 11.34950 -15.60910 -19.36130 -0.00000 -0.00000 0.00000 -82.42510 -50.52610 -74.22570 -20.35820 30.38150 -80.04090 20.74300 6.97161 -12.32140 22.40710 0.77360 0.80869 75.90860 -10.64970 69.11890 18.67820 34.62710 102.19900 15.04900 11.52970 7.60071 25.43710 -0.60213 -15.06700 -31.80560 16.20190 87.57480 -0.53542 9.55019 0.00720 6.95355 -10.66070 -44.05600 -19.89410 0.68318 5.52609 38.98380 9.28417 -53.12510 -45.51700 2.33527 4.09562 12.69460 -53.54160 19.79330 
